<svg width="30" height="30" viewBox="0 0 30 30" fill="none" xmlns="http://www.w3.org/2000/svg">
<path d="M27.0785 9.91433C26.4212 8.34556 25.465 6.91965 24.2631 5.71609C23.0648 4.51043 21.6414 3.55186 20.0736 2.8948C18.4676 2.21843 16.742 1.87172 14.9994 1.87527H14.9408C13.1683 1.88406 11.4545 2.23562 9.84022 2.92703C8.28594 3.59082 6.87588 4.5511 5.68886 5.75418C4.49862 6.95504 3.55333 8.37596 2.90566 9.93777C2.23334 11.5619 1.89267 13.3041 1.9037 15.0618C1.91249 17.095 2.39882 19.1136 3.30702 20.9182V25.3714C3.30702 26.1155 3.91054 26.719 4.65175 26.719H9.09901C10.9121 27.6339 12.9129 28.1153 14.9437 28.1253H15.0053C16.7572 28.1253 18.4535 27.7854 20.0531 27.1204C21.6129 26.4712 23.031 25.5238 24.2279 24.3313C25.4349 23.1331 26.3842 21.7327 27.0492 20.1712C27.7377 18.554 28.0892 16.8343 28.098 15.0589C28.1039 13.2747 27.7582 11.5432 27.0785 9.91433ZM9.15175 16.4065C8.37831 16.4065 7.74843 15.7766 7.74843 15.0003C7.74843 14.2239 8.37831 13.594 9.15175 13.594C9.92519 13.594 10.5551 14.2239 10.5551 15.0003C10.5551 15.7766 9.92812 16.4065 9.15175 16.4065ZM14.9994 16.4065C14.226 16.4065 13.5961 15.7766 13.5961 15.0003C13.5961 14.2239 14.226 13.594 14.9994 13.594C15.7728 13.594 16.4027 14.2239 16.4027 15.0003C16.4027 15.7766 15.7728 16.4065 14.9994 16.4065ZM20.8471 16.4065C20.0736 16.4065 19.4437 15.7766 19.4437 15.0003C19.4437 14.2239 20.0736 13.594 20.8471 13.594C21.6205 13.594 22.2504 14.2239 22.2504 15.0003C22.2504 15.7766 21.6205 16.4065 20.8471 16.4065Z" fill="#222222"/>
</svg>
