<svg width="30" height="30" viewBox="0 0 30 30" fill="none" xmlns="http://www.w3.org/2000/svg">
<g clip-path="url(#clip0_108_1188)">
<path d="M29.9998 15.0002C29.9998 6.71603 23.284 0.000244141 14.9998 0.000244141C6.7156 0.000244141 -0.000183105 6.71591 -0.000183105 15.0002C-0.000183105 22.4871 5.48513 28.6928 12.6561 29.818V19.3362H8.84747V15.0002H12.6561V11.6956C12.6561 7.93618 14.8955 5.85962 18.3217 5.85962C19.9629 5.85962 21.6795 6.15259 21.6795 6.15259V9.84399H19.7881C17.9246 9.84399 17.3436 11.0003 17.3436 12.1866V15.0002H21.5037L20.8387 19.3362H17.3436V29.818C24.5145 28.6928 29.9998 22.4872 29.9998 15.0002Z" fill="#1877F2"/>
<path d="M20.8385 19.3364L21.5035 15.0005H17.3434V12.1868C17.3434 11.0004 17.9245 9.84424 19.7879 9.84424H21.6793V6.15283C21.6793 6.15283 19.9628 5.85986 18.3215 5.85986C14.8953 5.85986 12.6559 7.93643 12.6559 11.6958V15.0005H8.84729V19.3364H12.6559V29.8183C13.4312 29.9398 14.2148 30.0007 14.9996 30.0005C15.7844 30.0007 16.5681 29.9398 17.3434 29.8183V19.3364H20.8385Z" fill="white"/>
</g>
<defs>
<clipPath id="clip0_108_1188">
<rect width="30" height="30" fill="white" transform="translate(-6.10352e-05 0.000244141)"/>
</clipPath>
</defs>
</svg>
