<svg width="30" height="30" viewBox="0 0 30 30" fill="none" xmlns="http://www.w3.org/2000/svg">
<g clip-path="url(#clip0_108_1185)">
<path d="M15 0.000244141C11.0227 0.000244141 7.20472 1.58157 4.39456 4.3936C1.58151 7.20675 0.000809744 11.0219 3.05176e-05 15.0002C3.05176e-05 18.9769 1.58206 22.7949 4.39456 25.6069C7.20472 28.4189 11.0227 30.0002 15 30.0002C18.9774 30.0002 22.7953 28.4189 25.6055 25.6069C28.418 22.7949 30 18.9769 30 15.0002C30 11.0236 28.418 7.20564 25.6055 4.3936C22.7953 1.58157 18.9774 0.000244141 15 0.000244141Z" fill="url(#paint0_linear_108_1185)"/>
<path d="M6.78987 14.8419C11.1633 12.9369 14.0789 11.6809 15.5367 11.0741C19.7039 9.34137 20.5688 9.04044 21.1336 9.03024C21.2578 9.02825 21.5344 9.05895 21.7149 9.20485C21.8649 9.3279 21.9071 9.4943 21.9281 9.61114C21.9469 9.72786 21.9727 9.99387 21.9516 10.2015C21.7266 12.5734 20.7492 18.3292 20.2524 20.9858C20.0438 22.1099 19.6289 22.4868 19.2281 22.5236C18.3563 22.6037 17.6953 21.9479 16.8516 21.395C15.5321 20.5295 14.7867 19.9909 13.5047 19.1465C12.0235 18.1705 12.9844 17.634 13.8281 16.7575C14.0485 16.528 17.8875 13.037 17.9602 12.7204C17.9696 12.6807 17.9789 12.5331 17.8899 12.4553C17.8031 12.3772 17.6742 12.404 17.5805 12.425C17.4469 12.455 15.3399 13.8491 11.2524 16.607C10.6547 17.0181 10.1133 17.2185 9.6258 17.2079C9.09143 17.1965 8.06018 16.9051 7.29377 16.6562C6.35627 16.3508 5.60862 16.1893 5.67424 15.6707C5.70705 15.4007 6.07971 15.1243 6.78987 14.8419Z" fill="white"/>
</g>
<defs>
<linearGradient id="paint0_linear_108_1185" x1="15" y1="0.000244141" x2="15" y2="30.0002" gradientUnits="userSpaceOnUse">
<stop stop-color="#2AABEE"/>
<stop offset="1" stop-color="#229ED9"/>
</linearGradient>
<clipPath id="clip0_108_1185">
<rect width="30" height="30" fill="white" transform="translate(-6.10352e-05 0.000244141)"/>
</clipPath>
</defs>
</svg>
