<svg width="34" height="33" viewBox="0 0 34 33" fill="none" xmlns="http://www.w3.org/2000/svg">
<g clip-path="url(#clip0_108_1193)">
<g filter="url(#filter0_d_108_1193)">
<path d="M2.63981 16.8201C2.6391 19.3407 3.30285 21.8019 4.56496 23.9712L2.5191 31.383L10.1635 29.3942C12.2778 30.5363 14.6468 31.1347 17.0541 31.1349H17.0604C25.0075 31.1349 31.4766 24.7183 31.48 16.8314C31.4815 13.0097 29.9829 9.41594 27.2602 6.71222C24.5379 4.00873 20.9174 2.51908 17.0598 2.51733C9.11184 2.51733 2.64321 8.93361 2.63992 16.8201" fill="url(#paint0_linear_108_1193)"/>
</g>
<g filter="url(#filter1_d_108_1193)">
<path d="M2.12478 16.8153C2.12396 19.4266 2.8115 21.9758 4.11861 24.2228L1.99939 31.9003L9.91787 29.8402C12.0997 31.0206 14.5561 31.6429 17.0558 31.6438H17.0622C25.2944 31.6438 31.9959 24.9964 31.9994 16.8272C32.0008 12.8681 30.4483 9.14521 27.6283 6.34463C24.8079 3.5444 21.0579 2.00114 17.0622 1.99951C8.82861 1.99951 2.12818 8.64602 2.1249 16.8153H2.12478ZM6.84041 23.8358L6.54474 23.3701C5.30185 21.4092 4.64583 19.1431 4.64677 16.8163C4.64947 10.0261 10.2187 4.50184 17.0669 4.50184C20.3833 4.50323 23.5 5.78602 25.8442 8.11347C28.1883 10.4411 29.4782 13.5353 29.4774 16.8263C29.4744 23.6164 23.905 29.1414 17.0622 29.1414H17.0573C14.8292 29.1402 12.644 28.5465 10.7383 27.4245L10.2848 27.1577L5.5858 28.3801L6.84041 23.8357V23.8358Z" fill="url(#paint1_linear_108_1193)"/>
</g>
<path d="M13.3289 10.6216C13.0493 10.005 12.755 9.99257 12.4891 9.98176C12.2714 9.97246 12.0225 9.97316 11.7738 9.97316C11.5249 9.97316 11.1205 10.0661 10.7786 10.4364C10.4364 10.8071 9.47223 11.7029 9.47223 13.5249C9.47223 15.347 10.8097 17.1078 10.9961 17.3551C11.1828 17.602 13.5781 21.4606 17.3717 22.945C20.5245 24.1786 21.1661 23.9333 21.8504 23.8714C22.5348 23.8098 24.0587 22.9758 24.3696 22.1111C24.6807 21.2464 24.6807 20.5052 24.5874 20.3504C24.4941 20.1961 24.2452 20.1034 23.872 19.9183C23.4986 19.733 21.6637 18.8371 21.3216 18.7135C20.9795 18.59 20.7307 18.5284 20.4818 18.8992C20.2329 19.2694 19.5181 20.1034 19.3003 20.3504C19.0827 20.5979 18.8648 20.6287 18.4917 20.4435C18.1182 20.2577 16.9162 19.8671 15.4902 18.6056C14.3806 17.624 13.6316 16.4118 13.4138 16.0409C13.1961 15.6707 13.3905 15.47 13.5777 15.2855C13.7454 15.1196 13.951 14.853 14.1378 14.6369C14.3239 14.4206 14.386 14.2663 14.5105 14.0193C14.635 13.7721 14.5727 13.5558 14.4795 13.3706C14.386 13.1854 13.6607 11.354 13.3289 10.6218" fill="white"/>
</g>
<defs>
<filter id="filter0_d_108_1193" x="2.5191" y="2.51733" width="28.9609" height="28.8657" filterUnits="userSpaceOnUse" color-interpolation-filters="sRGB">
<feFlood flood-opacity="0" result="BackgroundImageFix"/>
<feColorMatrix in="SourceAlpha" type="matrix" values="0 0 0 0 0 0 0 0 0 0 0 0 0 0 0 0 0 0 127 0" result="hardAlpha"/>
<feOffset/>
<feComposite in2="hardAlpha" operator="out"/>
<feColorMatrix type="matrix" values="0 0 0 0 0 0 0 0 0 0 0 0 0 0 0 0 0 0 0.05 0"/>
<feBlend mode="normal" in2="BackgroundImageFix" result="effect1_dropShadow_108_1193"/>
<feBlend mode="normal" in="SourceGraphic" in2="effect1_dropShadow_108_1193" result="shape"/>
</filter>
<filter id="filter1_d_108_1193" x="-2.00061" y="-2.00049" width="38" height="37.9008" filterUnits="userSpaceOnUse" color-interpolation-filters="sRGB">
<feFlood flood-opacity="0" result="BackgroundImageFix"/>
<feColorMatrix in="SourceAlpha" type="matrix" values="0 0 0 0 0 0 0 0 0 0 0 0 0 0 0 0 0 0 127 0" result="hardAlpha"/>
<feOffset/>
<feGaussianBlur stdDeviation="2"/>
<feComposite in2="hardAlpha" operator="out"/>
<feColorMatrix type="matrix" values="0 0 0 0 0 0 0 0 0 0 0 0 0 0 0 0 0 0 0.1 0"/>
<feBlend mode="normal" in2="BackgroundImageFix" result="effect1_dropShadow_108_1193"/>
<feBlend mode="normal" in="SourceGraphic" in2="effect1_dropShadow_108_1193" result="shape"/>
</filter>
<linearGradient id="paint0_linear_108_1193" x1="16.9996" y1="31.383" x2="16.9996" y2="2.51733" gradientUnits="userSpaceOnUse">
<stop stop-color="#1FAF38"/>
<stop offset="1" stop-color="#60D669"/>
</linearGradient>
<linearGradient id="paint1_linear_108_1193" x1="16.9994" y1="31.9003" x2="16.9994" y2="1.99951" gradientUnits="userSpaceOnUse">
<stop stop-color="#F9F9F9"/>
<stop offset="1" stop-color="white"/>
</linearGradient>
<clipPath id="clip0_108_1193">
<rect width="34" height="33" fill="white"/>
</clipPath>
</defs>
</svg>
